<svg width="280" height="61" viewBox="0 0 280 61" fill="none" xmlns="http://www.w3.org/2000/svg">
<g clip-path="url(#clip0_1_8)">
<path d="M32.6933 14C29.7865 14 26.9298 14.7685 24.4406 16.2553C22.0016 14.813 19.1449 14 16.2436 14C7.28375 14 0 21.2782 0 30.2381C0 39.198 7.28375 46.4817 16.2436 46.4817C19.1393 46.4817 21.9849 45.7188 24.4685 44.2431C26.9521 45.7188 29.7976 46.4817 32.6933 46.4817C41.6532 46.4817 48.937 39.198 48.937 30.2381C48.937 21.2782 41.6532 14 32.6933 14ZM24.4685 42.6282C21.9014 40.9075 19.9802 38.5075 18.8776 35.7621L25.2091 42.0936C24.9697 42.2774 24.7191 42.4556 24.4685 42.6282ZM26.3618 41.1136L18.0312 32.7885C17.8864 31.9532 17.814 31.1012 17.814 30.2381C17.814 30.0376 17.8196 29.8371 17.8251 29.6367L27.7595 39.61C27.3307 40.1446 26.863 40.6458 26.3618 41.1136ZM28.6616 38.385L18.0312 27.7155C18.1704 26.908 18.3709 26.1229 18.6381 25.36L29.7308 36.4526C29.419 37.1209 29.0626 37.7668 28.6616 38.385ZM30.3267 34.9213L19.2563 23.8453C19.5625 23.2049 19.9134 22.5868 20.3087 21.991L30.8947 32.5769C30.7666 33.3788 30.5772 34.1639 30.3267 34.9213ZM21.2108 20.7714C21.6508 20.2368 22.1297 19.7301 22.6475 19.2512L30.8111 27.4148C30.9838 28.3336 31.0729 29.2747 31.0729 30.2381C31.0729 30.3662 31.0729 30.4942 31.0673 30.6279L21.2108 20.7714ZM23.8114 18.2878C24.0174 18.1319 24.2346 17.9816 24.4518 17.8312C26.9354 19.4628 28.8009 21.7459 29.909 24.3799L23.8114 18.2878ZM1.36431 30.2381C1.36431 22.0132 8.0188 15.3587 16.2436 15.3587C18.705 15.3587 21.0661 15.9323 23.21 17.085C18.9667 20.1255 16.5054 24.998 16.5054 30.2381C16.5054 35.4781 19.0224 40.3507 23.21 43.3911C21.0605 44.5438 18.6493 45.1174 16.2436 45.1174C8.0188 45.123 1.36431 38.4685 1.36431 30.2381ZM32.6933 45.123C30.232 45.123 27.8709 44.5494 25.727 43.3967C29.9703 40.3562 32.4316 35.4837 32.4316 30.2436C32.4316 25.0036 29.9703 20.1255 25.727 17.0906C27.8765 15.9379 30.232 15.3643 32.6933 15.3643C40.9182 15.3643 47.5727 22.0188 47.5727 30.2436C47.5782 38.4685 40.9237 45.123 32.6933 45.123Z" fill="white"/>
<path d="M80.972 41.8234H64.1773V17.7635H68.7055V37.3967H80.972V41.8234ZM100.436 41.8234H84.8918V17.7635H100.74V22.1565H89.42V25.7047H99.2872V30.199H89.42V37.3629H100.436V41.8234ZM115.541 42.1952C108.614 42.1952 102.971 36.5519 102.971 29.5907C102.971 22.6634 108.614 17.0201 115.541 17.0201C117.231 17.0201 118.887 17.358 120.407 18.0001C121.928 18.6421 123.313 19.5545 124.462 20.7372L125.104 21.3793L121.759 24.3192L121.184 23.7785C119.731 22.2917 117.738 21.5144 115.541 21.5144C111.081 21.5144 107.465 25.1302 107.465 29.5907C107.465 34.0851 111.081 37.7346 115.541 37.7346C117.805 37.7346 119.867 36.8222 121.455 35.2002V30.199H114.865V25.7047H125.882V36.7884L125.713 36.9912C123.28 40.269 119.495 42.1952 115.541 42.1952ZM150.313 41.8234H145.447L142.98 35.3354H135.005L132.505 41.8234H127.673L136.932 17.7635H141.02L150.313 41.8234ZM136.763 30.8748H141.223L138.993 25.0288L136.763 30.8748ZM170.318 41.8234H153.523V17.7635H158.052V37.3967H170.318V41.8234ZM185.998 41.8234H181.503V17.7635H190.12C191.776 17.7635 193.33 18.4056 194.513 19.5883C195.662 20.771 196.338 22.2917 196.338 23.9475C196.338 27.3605 193.533 30.0976 190.12 30.0976H185.998V41.8234ZM185.998 25.6709H190.12C191.066 25.6709 191.81 24.8936 191.81 23.9475C191.81 23.0013 191.033 22.1903 190.12 22.1903H185.998V25.6709ZM211.206 42.1614C204.279 42.1614 198.636 36.5519 198.636 29.6245C198.636 22.6634 204.279 17.0201 211.206 17.0201C218.167 17.0201 223.811 22.6634 223.811 29.6245C223.811 36.5519 218.167 42.1614 211.206 42.1614ZM211.206 21.5144C206.78 21.5144 203.164 25.1302 203.164 29.6245C203.164 34.0851 206.78 37.7008 211.206 37.7008C215.633 37.7008 219.249 34.0851 219.249 29.6245C219.249 25.1302 215.633 21.5144 211.206 21.5144ZM232.867 41.8234H228.339V17.7635H232.867V41.8234ZM258.853 41.8234H254.494L243.816 26.0426V41.8234H239.288V17.7635H243.68L254.325 33.5106V17.7635H258.853V41.8234ZM273.586 41.8234H269.058V22.2241H263.145V17.7635H279.5V22.2241H273.586V41.8234Z" fill="white"/>
</g>
<defs>
<clipPath id="clip0_1_8">
<rect width="279.5" height="60.2624" fill="white"/>
</clipPath>
</defs>
</svg>
