<svg width="280" height="53" viewBox="0 0 280 53" fill="none" xmlns="http://www.w3.org/2000/svg">
<g clip-path="url(#clip0_1_2)">
<path d="M32.6933 10C29.7865 10 26.9298 10.7685 24.4406 12.2553C22.0016 10.813 19.1449 10 16.2436 10C7.28375 10 0 17.2782 0 26.2381C0 35.198 7.28375 42.4817 16.2436 42.4817C19.1393 42.4817 21.9849 41.7188 24.4685 40.2431C26.9521 41.7188 29.7976 42.4817 32.6933 42.4817C41.6532 42.4817 48.937 35.198 48.937 26.2381C48.937 17.2782 41.6532 10 32.6933 10ZM24.4685 38.6282C21.9014 36.9075 19.9802 34.5075 18.8776 31.7621L25.2091 38.0936C24.9697 38.2774 24.7191 38.4556 24.4685 38.6282ZM26.3618 37.1136L18.0312 28.7885C17.8864 27.9532 17.814 27.1012 17.814 26.2381C17.814 26.0376 17.8196 25.8371 17.8251 25.6367L27.7595 35.61C27.3307 36.1446 26.863 36.6458 26.3618 37.1136ZM28.6616 34.385L18.0312 23.7155C18.1704 22.908 18.3709 22.1229 18.6381 21.36L29.7308 32.4526C29.419 33.1209 29.0626 33.7668 28.6616 34.385ZM30.3267 30.9213L19.2563 19.8453C19.5625 19.2049 19.9134 18.5868 20.3087 17.991L30.8947 28.5769C30.7666 29.3788 30.5772 30.1639 30.3267 30.9213ZM21.2108 16.7714C21.6508 16.2368 22.1297 15.7301 22.6475 15.2512L30.8111 23.4148C30.9838 24.3336 31.0729 25.2747 31.0729 26.2381C31.0729 26.3662 31.0729 26.4942 31.0673 26.6279L21.2108 16.7714ZM23.8114 14.2878C24.0174 14.1319 24.2346 13.9816 24.4518 13.8312C26.9354 15.4628 28.8009 17.7459 29.909 20.3799L23.8114 14.2878ZM1.36431 26.2381C1.36431 18.0132 8.0188 11.3587 16.2436 11.3587C18.705 11.3587 21.0661 11.9323 23.21 13.085C18.9667 16.1255 16.5054 20.998 16.5054 26.2381C16.5054 31.4781 19.0224 36.3507 23.21 39.3911C21.0605 40.5438 18.6493 41.1174 16.2436 41.1174C8.0188 41.123 1.36431 34.4685 1.36431 26.2381ZM32.6933 41.123C30.232 41.123 27.8709 40.5494 25.727 39.3967C29.9703 36.3562 32.4316 31.4837 32.4316 26.2436C32.4316 21.0036 29.9703 16.1255 25.727 13.0906C27.8765 11.9379 30.232 11.3643 32.6933 11.3643C40.9182 11.3643 47.5727 18.0188 47.5727 26.2436C47.5782 34.4685 40.9237 41.123 32.6933 41.123Z" fill="#323232"/>
<path d="M80.972 37.8234H64.1773V13.7635H68.7055V33.3967H80.972V37.8234ZM100.436 37.8234H84.8918V13.7635H100.74V18.1565H89.42V21.7047H99.2872V26.199H89.42V33.3629H100.436V37.8234ZM115.541 38.1952C108.614 38.1952 102.971 32.5519 102.971 25.5907C102.971 18.6634 108.614 13.0201 115.541 13.0201C117.231 13.0201 118.887 13.358 120.407 14.0001C121.928 14.6421 123.313 15.5545 124.462 16.7372L125.104 17.3793L121.759 20.3192L121.184 19.7785C119.731 18.2917 117.738 17.5144 115.541 17.5144C111.081 17.5144 107.465 21.1302 107.465 25.5907C107.465 30.0851 111.081 33.7346 115.541 33.7346C117.805 33.7346 119.867 32.8222 121.455 31.2002V26.199H114.865V21.7047H125.882V32.7884L125.713 32.9912C123.28 36.269 119.495 38.1952 115.541 38.1952ZM150.313 37.8234H145.447L142.98 31.3354H135.005L132.505 37.8234H127.673L136.932 13.7635H141.02L150.313 37.8234ZM136.763 26.8748H141.223L138.993 21.0288L136.763 26.8748ZM170.318 37.8234H153.523V13.7635H158.052V33.3967H170.318V37.8234ZM185.998 37.8234H181.503V13.7635H190.12C191.776 13.7635 193.33 14.4056 194.513 15.5883C195.662 16.771 196.338 18.2917 196.338 19.9475C196.338 23.3605 193.533 26.0976 190.12 26.0976H185.998V37.8234ZM185.998 21.6709H190.12C191.066 21.6709 191.81 20.8936 191.81 19.9475C191.81 19.0013 191.033 18.1903 190.12 18.1903H185.998V21.6709ZM211.206 38.1614C204.279 38.1614 198.636 32.5519 198.636 25.6245C198.636 18.6634 204.279 13.0201 211.206 13.0201C218.167 13.0201 223.811 18.6634 223.811 25.6245C223.811 32.5519 218.167 38.1614 211.206 38.1614ZM211.206 17.5144C206.78 17.5144 203.164 21.1302 203.164 25.6245C203.164 30.0851 206.78 33.7008 211.206 33.7008C215.633 33.7008 219.249 30.0851 219.249 25.6245C219.249 21.1302 215.633 17.5144 211.206 17.5144ZM232.867 37.8234H228.339V13.7635H232.867V37.8234ZM258.853 37.8234H254.494L243.816 22.0426V37.8234H239.288V13.7635H243.68L254.325 29.5106V13.7635H258.853V37.8234ZM273.586 37.8234H269.058V18.2241H263.145V13.7635H279.5V18.2241H273.586V37.8234Z" fill="#323232"/>
</g>
<defs>
<clipPath id="clip0_1_2">
<rect width="279.5" height="52.1124" fill="white"/>
</clipPath>
</defs>
</svg>
